<?xml version="1.0" encoding="utf-8"?>
<!-- Generator: Adobe Illustrator 15.0.0, SVG Export Plug-In . SVG Version: 6.00 Build 0)  -->
<!DOCTYPE svg PUBLIC "-//W3C//DTD SVG 1.1//EN" "http://www.w3.org/Graphics/SVG/1.1/DTD/svg11.dtd">
<svg version="1.1" id="Layer_1" xmlns="http://www.w3.org/2000/svg" xmlns:xlink="http://www.w3.org/1999/xlink" x="0px" y="0px"
	 width="510.236px" height="510.236px" viewBox="0 0 510.236 510.236" enable-background="new 0 0 510.236 510.236"
	 xml:space="preserve">
<g id="Layer_3">
	<rect x="0.882" y="0.001" fill="#D50000" width="510.236" height="510.235"/>
</g>
<g id="Layer_1_1_">
	<g>
		<path fill="#FFFFFF" d="M92.147,335.951c12.265-14.67,13.708-29.819,4.208-57.958c-6.014-17.799-15.994-31.508-8.659-42.568
			c7.817-11.785,24.411-0.361,10.583,15.391l2.765,1.925c16.595,1.924,24.772-20.804,12.387-27.296
			c-32.708-17.076-61.328,15.752-48.702,53.751c5.411,16.112,12.987,33.189,6.854,46.777c-5.291,11.664-15.512,18.519-22.366,18.758
			c-14.31,0.722-4.811-32.105,11.664-40.282c1.441-0.723,3.486-1.685,1.563-4.09c-20.323-2.284-32.228,7.095-39.082,20.202
			C3.401,358.681,61.242,372.748,92.147,335.951z"/>
		<path fill="#FFFFFF" d="M449.289,223.881c4.689,11.544,11.785,22.967,7.576,33.067c-3.485,8.657-8.058,12.266-13.106,13.107
			c-7.096,1.202-5.171-21.045,6.974-27.657c1.083-0.604,2.647-3.487,1.203-5.173c-15.391-0.841-24.049,6.494-28.739,16.235
			c-13.59,28.498,30.783,36.313,52.549,8.298c8.658-11.186,9.02-22.247,0.722-42.328c-5.289-12.748-13.348-22.247-8.297-30.665
			c5.412-8.898,18.398-1.202,8.659,10.702l2.162,1.201c12.628,0.723,17.798-16.112,8.179-20.319
			C461.796,169.527,438.105,196.824,449.289,223.881z"/>
		<path fill="#FFFFFF" d="M288.635,193.455c-8.778-6.974-33.43,4.691-40.403,22.008c-8.778,22.006-21.767,54.11-34.513,68.182
			c-13.468,14.79-14.79,3.367-13.468-5.171c3.127-20.083,22.728-66.618,33.429-79.727c-3.968-5.894-29.941-5.051-47.979,22.969
			c-6.735,10.581-22.127,45.813-39.202,73.592c-3.728,6.013-8.418,1.804-4.811-12.266c4.089-16.233,16.114-60.847,31.627-95.959
			c40.645-8.059,83.813-13.709,116.881-13.829c4.45-1.202,7.456-5.17,0-5.411c-28.498-0.961-71.308,2.403-111.351,7.454
			c7.695-15.391,15.992-27.656,24.41-32.826c-9.139-5.771-27.657-3.487-38.239,12.146c-4.69,6.975-9.379,15.393-13.829,24.532
			c-29.341,4.568-54.474,9.738-67.22,14.549c-13.229,5.051-11.785,21.044-3.729,18.037c16.716-6.253,39.322-12.746,64.454-18.518
			c-15.993,36.074-28.498,78.643-31.505,95.96c-7.456,42.087,18.639,41.847,31.386,25.253
			c13.829-18.159,42.688-82.013,47.137-88.746c1.323-2.285,3.126-1.082,2.165,0.964c-32.227,64.332-29.461,89.225-3.366,83.692
			c11.783-2.526,32.106-22.728,37.397-33.189c1.082-2.526,3.365-2.284,2.886-1.202c-20.441,53.03-46.417,95.959-63.854,109.427
			c-15.872,12.146-27.658-14.188,28.5-51.946c8.297-5.652,4.449-13.349-4.93-10.702l0,0c-28.98,4.567-111.954,30.902-148.39,56.155
			c-2.766,1.926-5.291,3.487-5.169,7.456c0.119,2.285,4.088,1.442,6.012,0.24c47.14-28.258,85.738-39.321,129.99-48.581
			c0.602,0.241,1.323,0.359,1.925,0.121c2.044-0.481,1.925,0.601,0.602,1.441c-3.006,1.685-6.014,3.247-6.735,3.487
			c-29.822,11.664-47.858,37.397-41.486,50.505c5.411,11.304,34.634,7.216,48.462-0.24c33.909-18.396,58.562-54.474,75.396-104.257
			C265.788,244.924,284.305,194.9,288.635,193.455z"/>
		<path fill="#FFFFFF" d="M485.724,295.308c-55.193-7.214-174.242,2.405-226.793,16.354c-15.632,4.087-11.302,12.385-3.365,10.822
			c0.12,0,3.487-0.843,3.607-0.843c43.169-8.416,147.908-15.753,208.993-4.088C475.505,318.876,497.51,296.871,485.724,295.308z"/>
		<path fill="#FFFFFF" d="M304.027,288.814c15.393-7.695,38.239-55.314,53.271-81.408c1.081-1.925,3.006-0.361,1.923,0.962
			c-37.998,65.416-21.886,72.991-6.854,72.03c20.082-1.203,38.603-30.063,42.689-36.557c1.683-2.526,2.644-0.482,1.683,1.321
			c-0.962,3.007-4.447,8.298-7.693,15.514c-4.57,10.221,0.238,14.188,4.208,15.991c6.252,3.008,23.327,1.082,25.974-9.379
			c-17.075-0.358,23.811-80.929,28.019-85.857c-11.425-6.613-29.101,0.601-37.156,16.474
			c-17.195,34.031-31.626,61.449-40.646,61.931c-17.557,0.961,20.204-75.88,26.335-78.282c-3.726-5.412-27.657-3.129-41.005,17.555
			c-4.811,7.456-34.15,59.404-41.365,67.941c-12.748,15.151-13.709,2.165-10.102-12.986c1.201-5.171,3.247-11.784,5.893-19.12
			c8.417-18.999,17.438-25.012,22.969-31.145c37.156-41.244,58.439-74.676,50.022-87.782c-7.454-11.663-32.348-6.493-48.341,17.557
			c-29.462,44.132-56.638,104.617-60.124,132.273C270.356,293.504,290.438,295.549,304.027,288.814z M319.659,207.886
			c1.322-3.006,2.165-3.848,4.45-8.897l0,0c13.228-29.1,29.82-59.764,41.244-74.074c7.096-7.454,17.076,2.646-0.962,30.304
			c-10.582,16.354-22.606,31.387-35.714,44.612c0,0,0,0,0,0.12c-3.366,3.729-6.373,6.855-7.696,8.658
			C320.02,209.812,318.939,209.57,319.659,207.886z"/>
	</g>
	<g enable-background="new    ">
		<path fill="#FFFFFF" d="M266.195,369.054c0,0.899-0.194,1.755-0.585,2.564c-0.391,0.811-0.936,1.525-1.635,2.146
			c-0.701,0.62-1.53,1.115-2.49,1.484c-0.96,0.37-2.021,0.556-3.18,0.556c-1.041,0-1.976-0.061-2.805-0.181
			c-0.83-0.119-1.61-0.31-2.34-0.569s-1.43-0.595-2.1-1.005c-0.67-0.41-1.365-0.905-2.085-1.485l3.3-3.33
			c0.96,0.8,1.9,1.365,2.82,1.695c0.919,0.33,1.92,0.495,3,0.495c0.44,0,0.855-0.065,1.246-0.195c0.39-0.13,0.729-0.305,1.02-0.525
			c0.289-0.22,0.52-0.479,0.689-0.779c0.17-0.301,0.256-0.63,0.256-0.99c0-0.38-0.07-0.72-0.211-1.021
			c-0.14-0.3-0.389-0.589-0.75-0.869c-0.359-0.28-0.859-0.565-1.5-0.855c-0.64-0.29-1.459-0.615-2.459-0.975
			c-0.881-0.32-1.726-0.686-2.535-1.096c-0.81-0.409-1.521-0.904-2.13-1.484c-0.61-0.58-1.1-1.261-1.47-2.04
			c-0.371-0.78-0.555-1.7-0.555-2.76c0-1.021,0.205-1.96,0.615-2.82c0.41-0.859,0.97-1.595,1.68-2.205s1.54-1.085,2.49-1.425
			c0.95-0.34,1.975-0.511,3.075-0.511c1.84,0,3.39,0.24,4.65,0.721c1.26,0.479,2.379,1.18,3.359,2.1l-3.24,3.271
			c-0.6-0.58-1.27-1.025-2.01-1.335c-0.74-0.311-1.61-0.466-2.609-0.466c-0.461,0-0.886,0.07-1.275,0.21
			c-0.391,0.141-0.726,0.326-1.005,0.556c-0.28,0.229-0.505,0.5-0.675,0.81c-0.17,0.311-0.255,0.636-0.255,0.976
			c0,0.38,0.08,0.725,0.24,1.034c0.16,0.311,0.43,0.61,0.81,0.9c0.379,0.29,0.885,0.58,1.515,0.87s1.415,0.605,2.354,0.945
			c1.2,0.42,2.23,0.88,3.09,1.38c0.86,0.5,1.561,1.05,2.101,1.649c0.54,0.601,0.94,1.275,1.2,2.025S266.195,368.113,266.195,369.054
			z"/>
		<path fill="#FFFFFF" d="M294.515,351.354v13.02c0,1.601-0.24,3.091-0.72,4.471c-0.48,1.38-1.176,2.585-2.086,3.615
			s-2.02,1.84-3.33,2.43c-1.31,0.59-2.805,0.885-4.484,0.885c-1.641,0-3.12-0.29-4.439-0.87c-1.32-0.58-2.445-1.375-3.375-2.385
			c-0.931-1.01-1.646-2.2-2.146-3.57c-0.501-1.369-0.75-2.845-0.75-4.425v-13.17h4.649v13.2c0,0.92,0.131,1.785,0.391,2.595
			c0.26,0.811,0.64,1.515,1.14,2.115c0.5,0.6,1.125,1.075,1.875,1.425c0.75,0.351,1.604,0.525,2.565,0.525
			c1.02,0,1.904-0.165,2.654-0.495s1.37-0.79,1.86-1.38c0.489-0.59,0.86-1.285,1.11-2.085s0.375-1.681,0.375-2.641v-13.26H294.515z"
			/>
		<path fill="#FFFFFF" d="M319.235,359.424c0,1.14-0.217,2.205-0.647,3.194c-0.431,0.99-1.018,1.851-1.759,2.58
			c-0.742,0.73-1.614,1.301-2.616,1.71c-1.003,0.41-2.065,0.615-3.188,0.615h-3.97v7.83h-4.649v-23.97h8.625
			c1.121,0,2.184,0.205,3.186,0.614c1.002,0.41,1.873,0.976,2.615,1.695c0.74,0.72,1.326,1.57,1.758,2.55
			C319.018,357.224,319.235,358.283,319.235,359.424z M314.585,359.363c0-0.619-0.115-1.2-0.346-1.74
			c-0.229-0.539-0.545-1.009-0.944-1.409c-0.4-0.4-0.87-0.721-1.41-0.96c-0.54-0.24-1.12-0.36-1.739-0.36h-3.091v9.06h3.091
			c0.619,0,1.199-0.124,1.739-0.375c0.54-0.249,1.01-0.585,1.41-1.005c0.399-0.42,0.715-0.904,0.944-1.455
			C314.469,360.568,314.585,359.983,314.585,359.363z"/>
		<path fill="#FFFFFF" d="M344.225,375.354h-5.121l-1.706-5.46c-0.18-0.6-0.403-1.149-0.673-1.65c-0.27-0.499-0.594-0.93-0.973-1.29
			c-0.379-0.359-0.833-0.64-1.361-0.84c-0.529-0.199-1.152-0.3-1.871-0.3h-1.735v9.54h-4.591v-23.97l9.464-0.03
			c1.019,0,1.966,0.176,2.845,0.525s1.637,0.835,2.275,1.455s1.139,1.35,1.498,2.189c0.358,0.84,0.539,1.75,0.539,2.73
			c0,0.7-0.11,1.38-0.328,2.04c-0.219,0.659-0.527,1.27-0.924,1.829c-0.398,0.561-0.869,1.056-1.416,1.485
			c-0.547,0.431-1.147,0.755-1.803,0.976c0.755,0.28,1.371,0.685,1.848,1.215c0.478,0.53,0.855,1.165,1.133,1.904
			c0.139,0.341,0.269,0.681,0.388,1.021s0.243,0.695,0.372,1.064c0.13,0.371,0.27,0.771,0.418,1.2
			c0.149,0.431,0.313,0.905,0.492,1.425c0.22,0.66,0.424,1.226,0.615,1.695C343.8,374.579,344.005,374.993,344.225,375.354z
			 M338.165,358.584c0-0.561-0.105-1.07-0.314-1.53c-0.211-0.46-0.496-0.86-0.855-1.2c-0.36-0.34-0.785-0.604-1.275-0.795
			c-0.49-0.189-1.016-0.285-1.574-0.285h-3.36v7.47h3.36c0.559,0,1.084-0.085,1.574-0.255s0.915-0.415,1.275-0.734
			c0.359-0.32,0.645-0.705,0.855-1.155C338.059,359.648,338.165,359.144,338.165,358.584z"/>
		<path fill="#FFFFFF" d="M366.934,375.354h-15.84v-23.97h15.84v3.84h-11.28v5.729h11.13v3.75h-11.13v6.601h11.28V375.354z"/>
		<path fill="#FFFFFF" d="M398.464,375.354h-4.56v-16.02l-7.56,12.75l-7.26-12.87v16.14h-4.561v-24h5.25l6.66,11.91l6.96-11.91
			h5.069V375.354z"/>
		<path fill="#FFFFFF" d="M431.164,375.354h-5.101l-2.219-4.8h-11.641l-2.25,4.8h-5.1l11.34-24h3.63L431.164,375.354z
			 M422.014,366.684l-3.99-8.64l-4.051,8.64H422.014z"/>
		<path fill="#FFFFFF" d="M457.534,371.033c-1.199,1.461-2.654,2.621-4.365,3.48c-1.709,0.859-3.595,1.29-5.654,1.29
			c-1.78,0-3.45-0.325-5.01-0.976c-1.561-0.649-2.918-1.534-4.072-2.654s-2.064-2.435-2.729-3.945
			c-0.665-1.51-0.999-3.135-0.999-4.875s0.334-3.364,0.999-4.875c0.665-1.51,1.575-2.83,2.729-3.96s2.512-2.015,4.072-2.655
			c1.56-0.64,3.229-0.96,5.01-0.96c2.06,0,3.945,0.431,5.654,1.29c1.711,0.86,3.136,1.98,4.275,3.36l-3.21,3.3
			c-0.739-1.06-1.694-1.915-2.864-2.565c-1.17-0.649-2.456-0.975-3.855-0.975c-1.121,0-2.176,0.215-3.165,0.646
			c-0.99,0.43-1.855,1.01-2.595,1.739c-0.74,0.73-1.326,1.58-1.756,2.55c-0.43,0.971-0.645,2.006-0.645,3.105
			c0,1.08,0.215,2.105,0.645,3.075s1.016,1.82,1.756,2.55c0.739,0.73,1.604,1.311,2.595,1.74c0.989,0.43,2.044,0.645,3.165,0.645
			c1.48,0,2.79-0.334,3.93-1.005c1.141-0.67,2.09-1.555,2.85-2.655L457.534,371.033z"/>
		<path fill="#FFFFFF" d="M484.954,351.384l-9.779,14.16v9.84h-4.71v-9.9l-9.271-14.1h5.4l6.24,10.08l6.51-10.08H484.954z"/>
	</g>
</g>
</svg>
